<?xml version="1.0" encoding="UTF-8" standalone="no"?>
<!-- Created with Inkscape (http://www.inkscape.org/) -->

<svg
   width="210mm"
   height="297mm"
   viewBox="0 0 210 297"
   version="1.1"
   id="svg5"
   xmlns="http://www.w3.org/2000/svg"
   xmlns:svg="http://www.w3.org/2000/svg">
  <defs
     id="defs2" />
  <path
     style="fill:#414143;fill-opacity:0.996078;stroke-width:0.0460608"
     d="m 91.49661,131.45847 c -2.424856,-0.25026 -4.076949,-1.09373 -5.104326,-2.606 -0.229079,-0.3372 -0.531722,-0.93245 -0.652362,-1.28309 l -0.08791,-0.25552 0.101076,-0.022 c 0.05559,-0.0121 0.971624,-0.13729 2.035627,-0.27817 1.064004,-0.14088 1.987431,-0.26655 2.052061,-0.27926 0.106479,-0.0209 0.127855,0.002 0.227722,0.24338 0.208441,0.50403 0.748347,0.90933 1.452742,1.09056 1.000853,0.2575 2.702769,0.1808 3.26422,-0.1471 0.491527,-0.28707 0.448591,-0.85194 -0.08327,-1.09543 -0.318161,-0.14566 -0.834184,-0.25572 -2.031034,-0.43318 -3.078724,-0.4565 -4.707575,-1.04319 -5.402236,-1.94581 -0.661988,-0.86017 -0.942845,-1.64861 -0.947812,-2.66074 -0.0069,-1.4096 0.550775,-2.51108 1.715196,-3.38764 1.248945,-0.94019 2.757686,-1.36796 4.819094,-1.36637 0.962557,7.9e-4 1.440953,0.0438 2.21092,0.19886 1.549138,0.31203 2.763059,1.03529 3.580069,2.13301 0.299873,0.40291 0.715843,1.21064 0.652097,1.26625 -0.02236,0.0195 -0.911183,0.19585 -1.975189,0.39189 -1.064003,0.19604 -1.976006,0.36591 -2.026673,0.3775 -0.06995,0.016 -0.123463,-0.0289 -0.222335,-0.18665 -0.17385,-0.27733 -0.532776,-0.59364 -0.83688,-0.7375 -0.416864,-0.19721 -0.814932,-0.26979 -1.497161,-0.27299 -0.668276,-0.003 -0.986446,0.0512 -1.341276,0.22889 -0.498287,0.24958 -0.588253,0.61688 -0.232399,0.94882 0.261268,0.2437 0.623816,0.33558 1.965193,0.49801 1.856676,0.22482 3.247723,0.47296 3.897029,0.69515 1.692005,0.579 2.808269,1.99219 2.929398,3.7086 0.0313,0.44354 -0.05064,1.16172 -0.180578,1.58269 -0.580287,1.88 -2.449523,3.13915 -5.240994,3.53044 -0.575598,0.0807 -2.486467,0.12055 -3.040012,0.0634 z"
     id="path1532" />
  <path
     style="fill:#414143;fill-opacity:0.996078;stroke-width:0.0460608"
     d="m 88.526366,149.61833 c -1.137346,-3.00835 -2.320229,-6.13818 -2.628633,-6.95518 l -0.560734,-1.48546 h 2.82239 2.822392 l 0.161729,0.47212 c 0.08895,0.25967 0.649825,1.92112 1.246384,3.69212 0.596558,1.771 1.095038,3.19082 1.107733,3.15516 0.0127,-0.0356 0.384382,-1.14265 0.825969,-2.45999 0.441586,-1.31734 0.988652,-2.94443 1.215699,-3.61577 l 0.412814,-1.22061 1.961972,-0.012 1.961973,-0.012 -0.155348,0.42655 c -0.08544,0.23461 -0.83285,2.25057 -1.660908,4.47991 -0.828059,2.22934 -1.874599,5.04826 -2.325645,6.26426 -0.451049,1.21601 -0.865048,2.33011 -0.919999,2.47577 l -0.09991,0.26485 h -2.05999 -2.059991 z"
     id="path1534" />
  <path
     style="fill:#414143;fill-opacity:0.996078;stroke-width:0.0460608"
     d="m 101.30756,148.13287 v -6.95518 h 2.74062 2.74061 v 6.95518 6.95518 h -2.74061 -2.74062 z"
     id="path1536" />
  <path
     style="fill:#414143;fill-opacity:0.996078;stroke-width:0.0460608"
     d="m 101.30756,137.97646 v -2.14182 h 2.74062 2.74061 v 2.14182 2.14183 h -2.74061 -2.74062 z"
     id="path1538" />
  <path
     style="fill:#414143;fill-opacity:0.996078;stroke-width:0.0460608"
     d="m 114.05314,155.22344 c -1.38595,-0.19166 -2.30604,-0.62475 -2.89291,-1.36168 -0.42637,-0.5354 -0.71666,-1.30439 -0.82333,-2.181 -0.0285,-0.23439 -0.0475,-1.70183 -0.0475,-3.67335 v -3.28304 h -1.0594 -1.05939 v -1.77334 -1.77334 h 1.05225 1.05226 l 0.0302,-0.6291 c 0.0166,-0.34601 0.0302,-0.97302 0.0303,-1.39335 8e-5,-0.42032 0.0137,-1.15092 0.0302,-1.62353 l 0.03,-0.85931 0.60317,-0.0261 c 0.33175,-0.0144 1.49963,-0.0381 2.5953,-0.0528 l 1.99213,-0.0267 v 2.30547 2.30547 h 1.42789 1.42788 v 1.77334 1.77334 h -1.43072 -1.43071 l 0.0165,2.86728 c 0.0146,2.53268 0.0255,2.89438 0.0939,3.09945 0.15288,0.45899 0.51778,0.64507 1.25405,0.63952 0.38711,-0.003 0.93375,-0.0769 1.39333,-0.1886 l 0.10364,-0.0252 v 1.93129 1.93129 l -0.35697,0.0567 c -0.99733,0.15857 -1.44955,0.1964 -2.54486,0.21286 -0.646,0.01 -1.31524,-0.002 -1.4872,-0.0256 z"
     id="path1540" />
  <path
     style="fill:#414143;fill-opacity:0.996078;stroke-width:0.0460608"
     d="m 107.90233,131.45845 c -2.49532,-0.2611 -4.4079,-1.37392 -5.65261,-3.28893 -0.50979,-0.78432 -0.86268,-1.78492 -0.99037,-2.80814 -0.0805,-0.64491 -0.0323,-1.93936 0.0946,-2.53892 0.31802,-1.50336 1.00938,-2.75244 2.10459,-3.80239 1.05644,-1.01279 2.35633,-1.64857 3.85999,-1.88796 0.95205,-0.15157 2.43351,-0.12925 3.36608,0.0507 2.89435,0.55855 4.97465,2.59413 5.54396,5.42479 0.13192,0.65595 0.18697,1.25431 0.18697,2.03243 v 0.69273 h -4.72793 -4.72793 l 0.0269,0.44909 c 0.0469,0.78196 0.26932,1.39573 0.62712,1.73041 0.29473,0.27569 0.66792,0.39967 1.30324,0.43296 0.82688,0.0433 1.37238,-0.12069 1.78988,-0.5382 0.24069,-0.24068 0.46844,-0.66432 0.52809,-0.98226 0.0176,-0.0939 0.0556,-0.17076 0.0845,-0.17072 0.0289,4e-5 1.12677,0.0726 2.43983,0.16121 1.31306,0.0886 2.44656,0.16115 2.51889,0.16115 h 0.13152 l -0.0863,0.31091 c -0.26995,0.97319 -0.81201,1.84106 -1.6557,2.65085 -1.05377,1.01143 -2.30687,1.59705 -3.96372,1.85239 -0.5651,0.0871 -2.23209,0.12748 -2.80163,0.0679 z m 3.01176,-9.15417 c -0.0833,-0.83815 -0.25188,-1.29994 -0.58409,-1.60008 -0.10474,-0.0946 -0.32772,-0.23709 -0.49551,-0.31659 -0.2951,-0.13982 -0.32542,-0.14455 -0.9269,-0.14455 -0.57559,0 -0.64107,0.009 -0.88068,0.12138 -0.65726,0.30817 -0.98168,0.88396 -1.08004,1.91681 l -0.0318,0.33394 h 2.01496 2.01497 z"
     id="path1542" />
  <path
     style="fill:#414143;fill-opacity:0.996078;stroke-width:0.0460608"
     d="m 126.14633,131.45417 c -1.38525,-0.16118 -2.65526,-0.85938 -3.45594,-1.89993 l -0.20989,-0.27276 -0.11551,0.22505 c -0.16677,0.32491 -0.3887,0.90378 -0.51452,1.34203 l -0.1091,0.38 h -1.53445 -1.53444 v -9.35035 -9.35034 h 2.69455 2.69456 v 3.20123 c 0,1.76067 0.0156,3.20119 0.0346,3.20114 0.019,-4e-5 0.0952,-0.0961 0.16932,-0.21341 0.30635,-0.48489 0.88634,-0.99934 1.44016,-1.27741 1.10137,-0.55301 2.94227,-0.54881 4.17363,0.01 0.67237,0.30487 1.38129,0.90138 1.83517,1.54418 0.98756,1.39864 1.51036,3.73936 1.33365,5.97117 -0.1728,2.18241 -0.79664,3.80086 -1.91523,4.96873 -0.84783,0.88518 -1.85244,1.35698 -3.24699,1.52491 -0.45017,0.0542 -1.25635,0.0525 -1.73952,-0.004 z m 0.30137,-3.51756 c 0.79708,-0.43684 1.06845,-1.37308 1.06845,-3.68626 0,-2.38824 -0.26572,-3.24067 -1.14505,-3.67336 -0.27124,-0.13346 -0.34677,-0.14966 -0.69656,-0.14944 -0.33458,2.3e-4 -0.43048,0.0189 -0.65141,0.12722 -0.29989,0.14699 -0.65394,0.50394 -0.77739,0.78374 -0.17313,0.39241 -0.19107,0.70982 -0.17382,3.07545 0.016,2.19148 0.0204,2.28893 0.11664,2.577 0.18822,0.56336 0.42332,0.83615 0.87881,1.0197 0.17091,0.0689 0.309,0.0838 0.67544,0.0732 0.40776,-0.0118 0.48863,-0.0287 0.70489,-0.14725 z"
     id="path1544" />
  <path
     style="fill:#414143;fill-opacity:0.996078;stroke-width:0.0460608"
     d="m 126.61796,155.38278 c -2.07187,-0.15447 -3.55172,-0.75652 -4.778,-1.94385 -1.20275,-1.16454 -1.89162,-2.43557 -2.1834,-4.02853 -0.11574,-0.63191 -0.10578,-1.91765 0.0202,-2.6133 0.25224,-1.39233 0.84343,-2.56115 1.79946,-3.55767 1.32714,-1.38332 2.86156,-2.09897 4.9114,-2.29065 1.28123,-0.11981 2.67285,0.0168 3.76775,0.36973 0.60624,0.19545 1.55429,0.6808 2.0288,1.03863 1.99556,1.50488 3.01204,3.80785 2.80078,6.34551 -0.0889,1.06736 -0.29779,1.85564 -0.70968,2.6775 -1.11191,2.21866 -3.17997,3.62349 -5.79189,3.93439 -0.45304,0.0539 -1.52934,0.0933 -1.86546,0.0682 z m 1.25384,-3.35823 c 0.30588,-0.0908 0.66345,-0.41134 0.8113,-0.7272 0.31871,-0.68084 0.51608,-2.47474 0.44192,-4.01661 -0.0833,-1.73205 -0.38678,-2.52135 -1.09533,-2.84889 -0.17804,-0.0823 -0.29956,-0.099 -0.72081,-0.099 -0.46027,0 -0.52803,0.0113 -0.7399,0.12309 -0.81487,0.43006 -1.13249,1.47689 -1.1309,3.72732 0.001,1.49427 0.11776,2.44452 0.37035,3.01553 0.16435,0.37155 0.57387,0.73107 0.97075,0.85223 0.20195,0.0617 0.84863,0.046 1.09262,-0.0265 z"
     id="path1546" />
  <path
     style="fill:#414143;fill-opacity:0.996078;stroke-width:0.0460608"
     d="m 124.92757,138.24131 c -0.19177,-0.50033 -0.34589,-0.91266 -0.34248,-0.91628 0.0164,-0.0174 6.2296,-3.01824 6.26388,-3.0253 0.064,-0.0132 1.04065,2.5981 0.98031,2.62113 -0.2137,0.0816 -6.49633,2.23015 -6.52123,2.23015 -0.0175,0 -0.18871,-0.40936 -0.38048,-0.9097 z"
     id="path1548" />
  <path
     style="fill:#414143;fill-opacity:0.996078;stroke-width:0.13028"
     d="m 140.18085,131.25695 c -2.53808,-0.57641 -4.63378,-2.59425 -5.34845,-5.14975 -0.0896,-0.32054 -0.16406,-1.13975 -0.16538,-1.82046 -0.004,-2.13042 0.58007,-3.56479 2.04722,-5.02657 1.00356,-0.99988 2.04306,-1.59385 3.40147,-1.9436 1.02948,-0.26506 3.29857,-0.26679 4.43436,-0.003 2.4689,0.57258 4.584,2.58596 5.19965,4.94961 0.26072,1.00097 0.25866,2.87434 -0.004,3.8942 -0.59966,2.32579 -2.47925,4.24073 -4.87452,4.96617 -1.01401,0.30711 -3.60185,0.38093 -4.69006,0.13379 z m 3.34239,-3.50394 c 0.80105,-0.92843 0.91876,-5.45495 0.17322,-6.66126 -0.30663,-0.49613 -0.74902,-0.7134 -1.4526,-0.7134 -0.43915,0 -0.61425,0.084 -1.01859,0.48855 -0.65393,0.65428 -0.84308,1.67634 -0.75614,4.0856 0.0661,1.83051 0.22111,2.44586 0.73064,2.89972 0.60035,0.53475 1.82147,0.48261 2.32347,-0.0992 z"
     id="path1550" />
  <path
     style="fill:#414143;fill-opacity:0.996078;stroke-width:0.13028"
     d="m 137.18442,148.1279 v -6.90482 h 2.27989 2.27989 l 0.009,1.46565 c 0.007,1.14624 0.0385,1.39467 0.14499,1.13995 0.0749,-0.17914 0.2321,-0.56021 0.34935,-0.84682 0.49918,-1.22022 1.80454,-2.01933 3.2986,-2.01933 h 0.62775 l -1.7e-4,2.3776 -1.7e-4,2.3776 h -1.0095 c -1.15476,0 -1.72727,0.24838 -2.20436,0.95633 -0.46865,0.69542 -0.56391,1.54734 -0.56391,5.04294 v 3.31572 H 139.79 137.18441 Z"
     id="path1552" />
  <path
     style="fill:#414143;fill-opacity:0.996078;stroke-width:0.13028"
     d="m 148.1279,148.1279 v -6.90482 h 2.67073 2.67074 v 6.90482 6.90482 h -2.67074 -2.67073 z"
     id="path1554" />
  <path
     style="fill:#414143;fill-opacity:0.996078;stroke-width:0.13028"
     d="m 148.1279,137.96609 v -2.08447 h 2.67073 2.67074 v 2.08447 2.08448 h -2.67074 -2.67073 z"
     id="path1556" />
  <path
     style="fill:#414143;fill-opacity:0.996078;stroke-width:0.13028"
     d="m 158.80439,155.12241 c -1.86912,-0.52483 -3.07855,-2.19526 -2.96825,-4.09967 0.15585,-2.69071 2.52632,-4.26904 7.08806,-4.71946 2.15923,-0.2132 2.14005,-0.2079 2.14005,-0.59222 0,-0.40752 -0.30847,-1.1647 -0.53036,-1.30184 -0.33856,-0.20924 -1.24774,-0.29526 -1.87457,-0.17735 -0.7063,0.13286 -1.3304,0.61867 -1.46045,1.13683 -0.0724,0.2885 -0.12308,0.30457 -0.74432,0.23593 -0.36664,-0.0405 -1.45807,-0.14297 -2.4254,-0.2277 -0.96733,-0.0847 -1.77549,-0.1669 -1.79592,-0.18262 -0.0204,-0.0157 0.0863,-0.35853 0.23718,-0.76181 0.37397,-0.99951 1.35807,-2.05334 2.38319,-2.55206 1.22179,-0.59439 2.20218,-0.80681 4.06104,-0.87985 3.5904,-0.1411 5.946,0.71151 6.86009,2.483 0.37775,0.73207 0.49577,2.26478 0.49839,6.47241 0.002,2.69708 0.0507,3.90369 0.17865,4.39693 l 0.17633,0.67979 h -2.57022 -2.57022 l -0.0814,-0.40712 c -0.0448,-0.22392 -0.0814,-0.6343 -0.0814,-0.91196 0,-0.27766 -0.0281,-0.50483 -0.0625,-0.50483 -0.0343,0 -0.30563,0.26382 -0.60286,0.58626 -0.30969,0.33599 -0.9075,0.76703 -1.40029,1.00967 -0.80161,0.3947 -0.96165,0.42546 -2.361,0.45375 -0.91593,0.0185 -1.73217,-0.0345 -2.09381,-0.13608 z m 5.09231,-3.24897 c 0.75214,-0.37928 1.01886,-0.92576 1.12526,-2.30552 l 0.0824,-1.06851 -0.5086,0.0855 c -2.30722,0.38767 -3.17934,1.02266 -3.17934,2.31487 0,1.14556 1.20296,1.61782 2.48028,0.9737 z"
     id="path1558" />
  <path
     style="fill:#414143;fill-opacity:0.996078;stroke-width:0.264583"
     d="m 30.159728,115.42772 c 14.395894,14.33076 14.395894,14.33076 14.395894,14.33076"
     id="path1665" />
  <path
     style="fill:#000000;fill-opacity:0.996078;stroke-width:0.264583"
     d="m 30.811124,114.77632 14.461037,13.4188"
     id="path1667" />
  <path
     style="fill:#414143;fill-opacity:1;stroke-width:0.264583"
     d="m 32.863343,114.41854 c 0.368444,-1.41763 1.241117,-2.71176 3.110425,-3.76183 1.895126,-1.22505 3.682373,-1.28503 5.471744,-1.36793 2.521662,0.21027 4.499166,1.12017 6.3837,2.14961 1.077405,1.23864 2.263347,2.43953 2.866152,3.84325 1.287392,2.18134 0.883691,4.30812 0.911955,6.44884 -0.687254,1.70497 -1.173579,3.45458 -2.214753,5.0809 -0.970753,1.37598 -1.570223,2.8768 -2.636184,4.07322 -1.335957,1.99442 -2.640814,4.0355 -3.804752,6.28796 -1.062774,1.98832 -1.370515,3.975 -1.555452,5.81652 0.11426,1.84771 0.600287,3.65825 1.938388,5.38358 l 1.889054,1.30279 c -0.495472,-3.97353 -0.240121,-7.34826 0.279978,-11.89755 0.89353,-2.67782 2.291063,-5.54206 5.387185,-7.44896 1.979631,-1.79972 4.983456,-2.91664 7.686497,-4.23409 2.362516,-0.81644 4.690185,-1.81708 5.862582,-8.92415 0.477686,-3.48377 0.787978,-6.98615 2.866149,-10.29209 1.53778,-2.26541 4.661793,-3.80027 6.009149,-4.3888 1.160049,-0.52409 2.278892,-0.94128 3.501262,-1.14809 0.825657,0.13504 0.768673,0.36816 0.846818,0.58626 -0.294301,0.84321 -0.661338,1.65525 -0.667682,2.62187 -0.09073,0.59118 0.109295,1.08543 0.407123,1.54708 1.592085,0.81719 2.835131,2.15365 3.322129,3.38727 0.25058,2.18799 0.859439,3.65618 1.449362,5.45545 l 0.504832,1.38423 c -0.745571,0.8761 -1.44651,1.57366 -2.019334,1.75877 -1.648079,0.82784 -3.20656,0.43126 -4.885484,0.58626 -0.388854,0.008 -0.604175,0.28305 -0.797962,0.5944 0.851814,2.18153 1.379984,3.95511 1.840198,5.91958 0.755763,3.27692 0.638665,5.36358 0.455981,7.3608 -0.646538,2.51882 -1.576828,4.02464 -2.735872,5.76487 -1.540431,2.12955 -2.046657,3.62288 -2.931292,5.17861 -0.681523,1.7227 -1.538656,3.30742 -1.823916,5.34147 -0.07203,1.68674 -0.152341,3.3652 -0.195418,5.0809 1.637365,0.65649 2.122632,1.79678 2.05749,2.21871 -2.068914,0.19106 -3.910815,-0.0489 -5.897126,-0.023 -0.217119,-1.67776 -0.197796,-3.48725 -1.632106,-4.21501 -0.801432,0.14102 -1.210237,-0.0884 -2.540453,1.17251 1.599253,0.3545 2.076359,1.18941 2.410172,2.01934 0.117731,0.73023 0.03981,1.29446 -0.846817,1.17251 l -16.48037,-0.19541 c -5.778917,-1.4167 -7.333014,-5.34579 -7.920072,-6.44095 -3.170137,-6.40696 -1.230776,-10.31547 -0.09212,-12.68573 2.605592,-4.48686 5.211184,-8.80475 7.816776,-13.18267 1.274565,-2.66289 0.789026,-5.09393 -0.781677,-7.68649 -1.437656,-1.447 -2.837222,-2.36877 -5.406604,-2.27989 -1.980302,-0.0206 -3.329655,1.26013 -4.852915,2.18218 -1.695638,0.49982 -2.360807,-0.24112 -2.556738,-1.54707 z"
     id="path2096" />
</svg>
